<svg xmlns="http://www.w3.org/2000/svg" viewBox="0 0 544.4 105.7"><defs><style>.cls-1{fill:#fff;}</style></defs><title>logo-DW-white</title><g id="Layer_2" data-name="Layer 2"><g id="Layer_1-2" data-name="Layer 1"><g id="ARTWORK"><g id="WHITE_COLOUR_LOGO_HORIZONTAL" data-name="WHITE COLOUR LOGO HORIZONTAL"><path class="cls-1" d="M62.2,41.4a25.83,25.83,0,0,1,8.1,4.9A24.47,24.47,0,0,1,76.4,55a27,27,0,0,1,2.2,11,26.45,26.45,0,0,1-3.4,13.4,25.22,25.22,0,0,1-9.4,9.5,26.25,26.25,0,0,1-13.4,3.5H32.7a.27.27,0,0,1-.3-.3V73.8a8.16,8.16,0,0,1,.6-3.5A7,7,0,0,1,35,68c.1-.1.1-.1.1-.2s-.1-.1-.3-.1H.3a.27.27,0,0,1-.3-.3V65a.27.27,0,0,1,.3-.3h32V45h-2a.52.52,0,0,1-.4-.2l-1.4-4.7q-.15-.3.3-.3H52.5A25.68,25.68,0,0,1,62.2,41.4Zm1.1,42.8a18.8,18.8,0,0,0,7.1-7.7,23.3,23.3,0,0,0,0-21A19.47,19.47,0,0,0,52.5,44.9H38.3V64.5H49.9a.27.27,0,0,1,.3.3v2.4a.27.27,0,0,1-.3.3h-7a4.3,4.3,0,0,0-3.3,1.3,4.52,4.52,0,0,0-1.3,3.4V87H52.4A20.34,20.34,0,0,0,63.3,84.2Zm58-38.9A22.72,22.72,0,0,1,130,54a24.1,24.1,0,0,1,0,24,22.72,22.72,0,0,1-8.7,8.7,23.68,23.68,0,0,1-12,3.2,23.42,23.42,0,0,1-12-3.2A24.18,24.18,0,0,1,88.6,78a23.68,23.68,0,0,1-3.2-12,23.42,23.42,0,0,1,3.2-12,22.72,22.72,0,0,1,8.7-8.7,24.1,24.1,0,0,1,24,0Zm-2.7,36.8a17.44,17.44,0,0,0,6.5-6.7,18.71,18.71,0,0,0,2.3-9.4,20.1,20.1,0,0,0-2.3-9.4,17,17,0,0,0-6.5-6.8,18.49,18.49,0,0,0-9.3-2.5,17.64,17.64,0,0,0-9.4,2.5,17,17,0,0,0-6.5,6.8A19,19,0,0,0,91.1,66a20.1,20.1,0,0,0,2.3,9.4,17.44,17.44,0,0,0,6.5,6.7,18.59,18.59,0,0,0,9.4,2.5A17.53,17.53,0,0,0,118.6,82.1Zm61.6.6c.1,0,.1.1.1.2s0,.2-.1.2a24.48,24.48,0,0,1-7.6,5,23.45,23.45,0,0,1-9.1,1.8A23.83,23.83,0,0,1,142.8,78a23.68,23.68,0,0,1-3.2-12,23.83,23.83,0,0,1,11.9-20.7,24,24,0,0,1,12-3.2,23.45,23.45,0,0,1,9.1,1.8,24.21,24.21,0,0,1,7.6,4.9.3.3,0,0,1,0,.4l-3.3,3.5a.31.31,0,0,1-.2.1c-.1,0-.2,0-.2-.1a18,18,0,0,0-12.8-5.2,17.53,17.53,0,0,0-9.2,2.6,18.23,18.23,0,0,0-6.6,6.9,18.83,18.83,0,0,0,0,18.4,18,18,0,0,0,6.6,6.8,17.27,17.27,0,0,0,9.2,2.6,18.72,18.72,0,0,0,7.1-1.4,16.1,16.1,0,0,0,5.7-3.9.45.45,0,0,1,.5,0Zm46.6-39.1-1.4,4.7a.27.27,0,0,1-.3.3H208.8V88.4a.27.27,0,0,1-.3.3h-5.3a.27.27,0,0,1-.3-.3V48.5H187.2c-.2,0-.3-.1-.4-.3l-1.4-4.7c-.1-.2,0-.4.3-.4h40.8A.46.46,0,0,1,226.8,43.6Zm35.8,1.7a22.72,22.72,0,0,1,8.7,8.7,24.1,24.1,0,0,1,0,24,22.72,22.72,0,0,1-8.7,8.7A23.93,23.93,0,0,1,229.9,78a23.68,23.68,0,0,1-3.2-12,23.83,23.83,0,0,1,11.9-20.7,24.1,24.1,0,0,1,24,0Zm-2.7,36.8a17.44,17.44,0,0,0,6.5-6.7,19.81,19.81,0,0,0,2.3-9.4,20.1,20.1,0,0,0-2.3-9.4,17,17,0,0,0-6.5-6.8,18.59,18.59,0,0,0-9.4-2.5,17.53,17.53,0,0,0-9.3,2.5,17,17,0,0,0-6.5,6.8,19,19,0,0,0-2.3,9.4,20.1,20.1,0,0,0,2.3,9.4,17.44,17.44,0,0,0,6.5,6.7,18.49,18.49,0,0,0,9.3,2.5A17.64,17.64,0,0,0,259.9,82.1Zm58.8,6.2a.37.37,0,0,1,.1.3c0,.1-.1.1-.2.1h-6.2a.76.76,0,0,1-.4-.2L300.5,71.3H288.9V88.4a.27.27,0,0,1-.3.3h-5.3a.27.27,0,0,1-.3-.3V48.5h-2a.27.27,0,0,1-.3-.3l-1.4-4.7c-.1-.2,0-.4.3-.4h24.3a13.4,13.4,0,0,1,7,1.9,15.54,15.54,0,0,1,5.1,5.1,12.91,12.91,0,0,1,1.9,7,14.44,14.44,0,0,1-1.4,6.2,15.07,15.07,0,0,1-3.8,4.9,13.51,13.51,0,0,1-5.5,2.7ZM288.9,66h14.7a7.94,7.94,0,0,0,4.5-1.2,7.2,7.2,0,0,0,2.8-3.2,10.53,10.53,0,0,0,1-4.4A9.9,9.9,0,0,0,311,53a7.66,7.66,0,0,0-7.4-4.4H289V66ZM404.5,43.6,389.8,88.4a.52.52,0,0,1-.4.2h-6.5c-.2,0-.3-.1-.3-.2l-12-36.2L358.8,88.4c0,.1-.1.2-.3.2h-6.3a.52.52,0,0,1-.4-.2L337.1,43.6c-.1-.2,0-.4.3-.4H343a.27.27,0,0,1,.3.3L355.4,82l12.4-38.5a.27.27,0,0,1,.3-.3h5.3a.27.27,0,0,1,.3.3l12.4,38.7,12.1-38.7a.27.27,0,0,1,.3-.3h5.6C404.4,43.3,404.5,43.4,404.5,43.6ZM544.4,64.9v2.4a.27.27,0,0,1-.3.3H514.8a25.24,25.24,0,0,1-4,12.2,27,27,0,0,1-9.3,8.8A24.51,24.51,0,0,1,489,91.8a24.79,24.79,0,0,1-10.3-2.2,27,27,0,0,1-8.5-5.9,21.75,21.75,0,0,1-5-7.6,11.72,11.72,0,0,1-.9-4,5.45,5.45,0,0,1,.5-2.2,8.11,8.11,0,0,1,1.4-2c.1-.1.1-.1.1-.2s-.1-.1-.3-.1H453.1V88.4a.27.27,0,0,1-.3.3h-5.3a.27.27,0,0,1-.3-.3V73.7a8.16,8.16,0,0,1,.6-3.5,6.67,6.67,0,0,1,1.9-2.3c.1-.1.1-.1.1-.2s-.1-.1-.2-.1H423.4a4.3,4.3,0,0,0-3.3,1.3,4.52,4.52,0,0,0-1.3,3.4v33.1a.27.27,0,0,1-.3.3h-5.3a.27.27,0,0,1-.3-.3V73.9a8.16,8.16,0,0,1,.6-3.5,7,7,0,0,1,2-2.3c.1-.1.1-.1.1-.2s-.1-.1-.3-.1h-9.5a.27.27,0,0,1-.3-.3V65.1a.27.27,0,0,1,.3-.3h7.1v-21a.27.27,0,0,1,.3-.3h5.3a.27.27,0,0,1,.3.3v21h28.5V26.7a.27.27,0,0,1,.3-.3h5.3a.27.27,0,0,1,.3.3V64.6h10.1a25.16,25.16,0,0,1,3.9-12.3,26.12,26.12,0,0,1,9.3-8.8A24.51,24.51,0,0,1,489,40.3a26.21,26.21,0,0,1,12.6,3.2,25.37,25.37,0,0,1,9.3,8.8,24.17,24.17,0,0,1,3.9,12.3h29.3Q544.4,64.45,544.4,64.9ZM479.1,47.8a19.86,19.86,0,0,0-7.2,6.9,21.78,21.78,0,0,0-3.1,9.9h40.3a20.89,20.89,0,0,0-3-9.9,19.75,19.75,0,0,0-17.2-9.4A19.32,19.32,0,0,0,479.1,47.8ZM499,84.2a17.46,17.46,0,0,0,7.1-6.9,21.76,21.76,0,0,0,3.1-9.8H468.9a20.5,20.5,0,0,0,3,9.8A20.57,20.57,0,0,0,499,84.2Z"/></g><g id="BBC_BLOCKS_POSITIVE" data-name="BBC BLOCKS POSITIVE"><path class="cls-1" d="M276.7,0V17.7H257.9V0Zm-4.4,11.7a3.48,3.48,0,0,0-2.8-3.3,2.44,2.44,0,0,0,1.1-.9,2.46,2.46,0,0,0,.5-1.7,3,3,0,0,0-1-2.3,4.89,4.89,0,0,0-3.2-1h-4V15.2h4.7a5.49,5.49,0,0,0,3.6-1.1A3.54,3.54,0,0,0,272.3,11.7Zm-3-1.5a3.58,3.58,0,0,0-2.1-.5h-2.1v3.5h2.2a3.27,3.27,0,0,0,2.1-.6,1.46,1.46,0,0,0,.5-1.2A1.43,1.43,0,0,0,269.3,10.2Zm-1.1-2.9a1.49,1.49,0,0,0,.6-1.3,1.5,1.5,0,0,0-.4-1.1,2.28,2.28,0,0,0-1.7-.5h-1.5V7.7h1.1A3.36,3.36,0,0,0,268.2,7.3ZM255.1,0V17.7H236.3V0Zm-4.5,11.7a3.48,3.48,0,0,0-2.8-3.3,2.44,2.44,0,0,0,1.1-.9,2.46,2.46,0,0,0,.5-1.7,3,3,0,0,0-1-2.3,4.89,4.89,0,0,0-3.2-1h-4V15.2h4.7a5.49,5.49,0,0,0,3.6-1.1A3.15,3.15,0,0,0,250.6,11.7Zm-4-4.4a1.49,1.49,0,0,0,.6-1.3,1.5,1.5,0,0,0-.4-1.1,2.28,2.28,0,0,0-1.7-.5h-1.5V7.7h1.1A3.36,3.36,0,0,0,246.6,7.3Zm1.1,2.9a3.58,3.58,0,0,0-2.1-.5h-2.1v3.5h2.2a3.27,3.27,0,0,0,2.1-.6,1.46,1.46,0,0,0,.5-1.2A1.43,1.43,0,0,0,247.7,10.2ZM298.4,0V17.7H279.6V0Zm-3.8,11.8-.3.2a8.49,8.49,0,0,1-4.5,1.4c-3.1,0-5.1-1.8-5.1-4.5s2.1-4.5,5-4.5a8.54,8.54,0,0,1,4.4,1.3l.3.2V3.4h-.1a12.35,12.35,0,0,0-4.6-1,7.8,7.8,0,0,0-5.3,1.9,6.49,6.49,0,0,0-2.1,4.8,6.87,6.87,0,0,0,1.7,4.2,7.19,7.19,0,0,0,5.5,2.2h0a10.63,10.63,0,0,0,4.8-1.1l.1-.1V11.8Z"/></g></g></g></g></svg>